<svg version="1" xmlns="http://www.w3.org/2000/svg" width="933.333" height="933.333" viewBox="0 0 700.000000 700.000000"><path d="M211.5 48.1c-12.7 4.8-19.2 13.3-30.6 39.9-7.7 18.1-9.5 21.3-18.5 32.5-10.1 12.7-10.8 14.3-9.9 22.9 1.8 15.4 1.8 15.2-4.9 39.6-.2.8-2.7 7-5.4 13.8-7.7 18.8-13.4 28.4-22.1 37.5-4.2 4.3-8.4 9.5-9.4 11.4-2 3.7-2.3 10.8-.9 19.3.4 2.5.4 6.5 0 9-.5 2.5-1.1 5.8-1.4 7.5-1 5.8-9.6 30-15.1 42.4-5.8 13-10.1 20.6-15.9 27.8-4.8 5.8-7.2 11.6-6.8 16.1 1.4 14.5-.3 23.7-8.3 44.6-7.2 19-18.7 41.9-25.9 51.6-10.8 14.5-12 17.7-9.9 26.8 1.3 5.3 1.2 11.7 0 21.7-1.2 9.3-1.7 11.8-3.5 18.9-6.6 26 4.2 57.6 28 81.7 14.4 14.6 33.6 25.9 51.3 30.4l9.8 2.5h137.7c252.4.1 240.1.2 248.2-1.5 13.6-2.9 24.9-8.5 36.8-18.5 13.2-11 21.6-23.9 27-41.5 5.5-17.7 17.4-56.9 18.7-61.5.7-2.5 4.3-14.4 8-26.5s8.2-27 10-33c6.5-21.4 20.7-68.2 24.7-81 2.2-7.2 4.3-14.4 4.8-16 .4-1.7 3.3-11.3 6.5-21.5 18.3-59.8 35.3-116.4 36-120 1.5-6.8.7-19.3-1.5-26.4-4.3-13.7-11.3-22.2-24.3-29.5-5.7-3.2-6.5-2.9-6.2 2.6.3 6.3-1.6 15.3-6.6 31.3-2.3 7.4-4.2 13.9-4.4 14.5-.1.5-.5 1.7-.8 2.5-.6 1.4-7.3 23.8-8.2 27-.2.8-4 13.4-8.5 28s-8.4 27.6-8.6 28.9c-.3 1.4-.7 2.8-.9 3.2-.5.6-10.7 34-12.5 40.4-1.3 4.6-6.7 22.2-9 29.5-1.2 3.6-2.3 7.2-2.5 8.1-.5 2.2-6.4 21.8-7.5 24.9-.5 1.4-2 6.3-3.4 11s-5.1 16.8-8.2 27c-3.1 10.2-7.1 23.4-8.9 29.5-1.8 6-4.9 16.3-6.9 22.7-4.9 15.9-9.5 31.3-17.1 56.2-4.2 13.8-7.3 22.2-9.2 24.9-3.8 5.4-11 10.2-19.1 12.8-6.7 2-7.2 2-193.7 2.1-102.9 0-189.7-.3-193-.7-3.3-.4-7.8-1.1-10-1.6s-4.9-1.2-6-1.4c-4.5-1.1-14.3-6.7-18.2-10.5-8.2-8.1-12.3-21-8.8-28.3 1.2-2.5 2.9-4.1 6.3-5.5 4.7-2.1 5.6-2.1 182.7-2.1 97.9-.1 179.1-.3 180.5-.5 1.4-.3 4.8-.7 7.5-1.1 7.3-.9 19.1-5.1 24.1-8.6 12.3-8.4 22.5-30.7 38.4-83.9 1.7-5.8 3.9-13.2 4.9-16.5 1-3.3 2.6-8.7 3.6-12 1-3.3 2.4-8 3.2-10.5.8-2.5 1.6-5.2 1.8-6 .4-1.5 11.9-39.6 27.1-89.3 4.7-15.5 9-29.6 9.4-31.2.4-1.7 6.3-21 13-43s12.3-40.7 12.5-41.5c.2-.8 2.4-8 4.9-16 12.9-42.2 20.9-69.2 22-74.6 3.9-18.5-1.2-36.1-14.4-49.5-7.1-7.3-14.1-11.3-24-14-6.1-1.7-16.1-1.8-163.5-1.6-140.3.2-157.6.4-162.2 1.8-2.9.9-5.6 1.2-6 .8-1-.9-8.2-2-16.3-2.3-3.7-.2-7.5.4-10.5 1.5zm301.6 99.6c4.9 2.9 4.8 6.4-.6 23.1-5.1 16.1-7.5 20.2-13.7 23.3-4 2-4.8 2-125.8 2.1-131.3 0-124.7.3-127-5.3-1.4-3.3-1.1-4.6 4.4-21.6 4.4-13.3 5-14.5 9.2-18.2 2.5-2.2 5.5-4.2 6.7-4.4 1.2-.2 56.6-.4 123.1-.5 111.6-.1 121.1 0 123.7 1.5zm-33 99.4c3.4 1.8 4.9 6 3.8 11-1.6 7.2-8.6 27.5-10.4 30.3-.9 1.4-3.7 3.7-6.2 5.1l-4.5 2.7-116.1-.1H224.2c-5.3-.1-6.7-.5-8.7-2.6-3.5-3.4-3.2-6.7 2.3-23.4 5.1-15.9 8.6-21 15.4-23 4.6-1.3 244.5-1.4 246.9 0z"/></svg>